<svg xmlns="http://www.w3.org/2000/svg" xmlns:xlink="http://www.w3.org/1999/xlink"><symbol id="sprite-arrow-right" fill="none" viewBox="0 0 9 14"><path stroke="currentColor" stroke-width="2" d="m1 13 6-6-6-6"/></symbol><use xlink:href="#sprite-arrow-right" width="9" height="14"/><view id="sprite-arrow-right-view" viewBox="0 0 9 14"/><symbol id="sprite-arrow-swiper" fill="none" viewBox="0 0 14 9"><path fill="currentColor" d="M.65 4.85a.5.5 0 0 1 0-.7l3.18-3.19a.5.5 0 1 1 .7.71l-2.82 2.83 2.83 2.83a.5.5 0 1 1-.71.7zm13.35.15h-13v-1h13z"/></symbol><use xlink:href="#sprite-arrow-swiper" width="14" height="9" y="14"/><view id="sprite-arrow-swiper-view" viewBox="0 14 14 9"/><symbol id="sprite-boots" fill="currentColor" viewBox="0 0 25 21"><path d="M24.64 14.27c.78-2.44.14-5.2-.54-7.11a.4.4 0 0 0-.06-.2 17 17 0 0 0-.63-1.5.9.9 0 0 0 .56-.83v-3.7a.9.9 0 0 0-.89-.88h-10.9a.44.44 0 0 0-.45.47c.15 2.66-.04 4.47-.6 5.74l-.04.04v.07a5 5 0 0 1-.86 1.26l-.04.02v.03q-.79.75-1.77 1.2a31 31 0 0 1-3.51 1.3l-.23.08c-4.15 1.38-4.69 3.87-4.68 5.13v3.22q0 .24.21.38a13 13 0 0 0 3.27 1.4.44.44 0 0 0 .56-.44v-.1h.65v.44a.44.44 0 0 0 .37.45q.59.09 1.15.14a.44.44 0 0 0 .48-.44v-.56h.66v.63c0 .24.2.44.44.44q.55.01 1.15-.05a.44.44 0 0 0 .4-.45v-.57h.66v.39a.44.44 0 0 0 .51.44 15 15 0 0 0 2.4-.57l.07-.03c3.11-1.78 5.08-.32 5.16-.25q.12.09.27.09h.55a.44.44 0 0 0 .45-.45v-.75h.63v.74c0 .25.2.45.44.45h1.43a.44.44 0 0 0 .45-.44v-.75h.65v.74c0 .25.2.45.45.45h1.1a.44.44 0 0 0 .44-.44v-4.79a.44.44 0 0 0-.36-.44m-10.53-13.32h8.95v3.67h-8.95zm-5.58 8.85v.02q.55.45 1 .98a1 1 0 0 0-.11.45.85.85 0 1 0 .92-.84q-.42-.58-.95-1.05.6-.34 1.11-.8.65.61 1.2 1.3a.85.85 0 1 0 .8-.56h-.11q-.59-.74-1.27-1.38.32-.4.56-.83 1.03.53 1.99 1.2a.86.86 0 1 0 .47-.77 20 20 0 0 0-2.09-1.23c.49-1.29.7-3 .6-5.33h.58v3.68c0 .49.4.89.89.89h8.31q.19.36.53 1.17h-.18a4.88 4.88 0 0 0-2.88 8.8c-3.6.95-9 2.07-13.54 1.78.84-3.35-.16-5.41-.81-6.32a30 30 0 0 0 2.98-1.16m-3.88 1.41c.48.57 1.73 2.46.82 5.95a11 11 0 0 1-4.56-1.38l-.03-.3v-.04c-.04-.94.32-2.99 3.77-4.23m19.25 7.84v-.74a.44.44 0 0 0-.44-.44h-1.54a.44.44 0 0 0-.45.44v.74h-.54v-.74a.44.44 0 0 0-.45-.44h-1.53a.44.44 0 0 0-.44.44v.72c-.6-.37-2.81-1.47-5.94.28a14 14 0 0 1-1.7.44v-.3a.44.44 0 0 0-.44-.45h-1.53a.44.44 0 0 0-.45.45v.6h-.22v-.62a.44.44 0 0 0-.45-.44h-1.54a.44.44 0 0 0-.44.44v.53l-.23-.03v-.5a.44.44 0 0 0-.44-.44h-1.54a.44.44 0 0 0-.45.39q-1.18-.39-2.26-1.02v-1.59c1.93 1.03 4.44 1.42 7.1 1.42 7.08 0 15.17-2.71 16.13-3.04v3.9zm-.22-4.68c-.37.12-1.3.44-2.58.78a4 4 0 0 1 2.2-7.56v.01c.66 1.89 1.24 4.57.38 6.77"/><path d="M15.82 1.48a1.3 1.3 0 1 0 0 2.59 1.3 1.3 0 0 0 0-2.59m0 1.7a.4.4 0 1 1 0-.8.4.4 0 0 1 0 .8"/></symbol><use xlink:href="#sprite-boots" width="25" height="21" y="23"/><view id="sprite-boots-view" viewBox="0 23 25 21"/><symbol id="sprite-burger-menu" fill="none" viewBox="0 0 26 26"><path fill="currentColor" d="M0 3.55h26v2.17h-26zm0 16.74h26v2.17h-26zm0-8.37h16.64v2.16h-16.64z"/></symbol><use xlink:href="#sprite-burger-menu" width="26" height="26" y="44"/><view id="sprite-burger-menu-view" viewBox="0 44 26 26"/><symbol id="sprite-close-menu" fill="none" viewBox="0 0 26 26"><path stroke="currentColor" stroke-width="2" d="m2.36 2.36 10.64 10.64m10.64 10.64-10.64-10.64m0 0 10.64-10.64-21.28 21.28"/></symbol><use xlink:href="#sprite-close-menu" width="26" height="26" y="70"/><view id="sprite-close-menu-view" viewBox="0 70 26 26"/><symbol id="sprite-crown" fill="none" viewBox="0 0 42 42"><path stroke="#0266C1" d="M28.3 30.82h-14.6m18.21-14.06-3.2 10.57h-15.43l-3.19-10.57 6.3 3.82 4.61-9.4 4.61 9.4z"/></symbol><use xlink:href="#sprite-crown" width="42" height="42" y="96"/><view id="sprite-crown-view" viewBox="0 96 42 42"/><symbol id="sprite-envelope" fill="none" viewBox="0 0 22 16"><path stroke="#2D383F" stroke-linecap="round" stroke-linejoin="round" d="M21 2.56v10.88c0 .86-.64 1.56-1.43 1.56h-17.14c-.8 0-1.43-.7-1.43-1.56v-10.88m20 0c0-.86-.64-1.56-1.43-1.56h-17.14c-.8 0-1.43.7-1.43 1.56m20 0-8.14 7.6c-1.07 1-2.65 1-3.72 0l-8.14-7.6"/></symbol><use xlink:href="#sprite-envelope" width="22" height="16" y="138"/><view id="sprite-envelope-view" viewBox="0 138 22 16"/><symbol id="sprite-flower" fill="none" viewBox="0 0 42 42"><path stroke="#0266C1" stroke-linecap="round" stroke-linejoin="round" d="M20.66 26.72a10.6 10.6 0 0 0-5.9-7.14 11 11 0 0 0-4.67-1.04c.1 2.21.91 4.36 2.37 6.13a11 11 0 0 0 8.47 3.97q-.04-.97-.27-1.92m0 0c-.6-2.56-2.18-4.8-4.38-6.28l.13-.66a10.5 10.5 0 0 1 4.59-6.42 10.5 10.5 0 0 1 4.59 6.42l.13.66a10.5 10.5 0 0 0-4.38 6.28m-.68 0q.22.96.27 1.92h.13a11 11 0 0 0 2.71-.33l.02-.02q-1.33.33-2.72.35m.27-1.92a10.6 10.6 0 0 1 5.9-7.14 11 11 0 0 1 4.67-1.04 10.3 10.3 0 0 1-2.37 6.13 11 11 0 0 1-8.47 3.97m.27-1.92q-.23.96-.27 1.92"/></symbol><use xlink:href="#sprite-flower" width="42" height="42" y="154"/><view id="sprite-flower-view" viewBox="0 154 42 42"/><symbol id="sprite-level" fill="none" viewBox="0 0 12 12"><g stroke="#fff" stroke-linecap="round" stroke-miterlimit="16" clip-path="url(#a)"><path d="M10.9 11.46h-1.95v-10.92h1.96zm-3.92 0v-7.94h-1.96v7.93zm-3.93 0v-4.97h-1.96v4.97z"/></g><defs><clipPath id="a"><path fill="#fff" d="M0 0h12v12h-12z"/></clipPath></defs></symbol><use xlink:href="#sprite-level" width="12" height="12" y="196"/><view id="sprite-level-view" viewBox="0 196 12 12"/><symbol id="sprite-map-icon" fill="none" viewBox="0 0 16 22"><path stroke="#2D383F" stroke-linecap="round" stroke-linejoin="round" d="M15.5 8.15c0-3.95-3.36-7.15-7.5-7.15s-7.5 3.2-7.5 7.15v.43c0 1.58.52 3.12 1.48 4.4l6 8.01h.03l6-8a7.3 7.3 0 0 0 1.49-4.41z"/><path stroke="#2D383F" stroke-linecap="round" stroke-linejoin="round" d="M6.53 5.29a3.5 3.5 0 0 1 2.94 0c.92.42 1.6 1.23 1.82 2.18a3.1 3.1 0 0 1-.65 2.73 3.4 3.4 0 0 1-2.64 1.21c-1.03 0-2-.45-2.64-1.21a3.1 3.1 0 0 1-.65-2.73c.23-.95.9-1.76 1.82-2.18"/></symbol><use xlink:href="#sprite-map-icon" width="16" height="22" y="208"/><view id="sprite-map-icon-view" viewBox="0 208 16 22"/><symbol id="sprite-map-marker" fill="none" viewBox="0 0 16 16"><path fill="#fff" d="M8.5 2a4.46 4.46 0 0 0-4.5 4.42q0 .95.4 1.8a28 28 0 0 0 3.91 5.7.25.25 0 0 0 .38 0 28 28 0 0 0 3.92-5.7 4 4 0 0 0 .39-1.8 4.46 4.46 0 0 0-4.5-4.42m0 6.71a2.3 2.3 0 0 1-2.34-2.3c0-1.26 1.05-2.29 2.34-2.29s2.34 1.03 2.34 2.3-1.05 2.3-2.34 2.3"/></symbol><use xlink:href="#sprite-map-marker" width="16" height="16" y="230"/><view id="sprite-map-marker-view" viewBox="0 230 16 16"/><symbol id="sprite-map" fill="none" viewBox="0 0 25 25"><path fill="#2D383F" d="M24.17 22.28v-15.58a.46.46 0 0 0-.6-.46v.02l-2.09.65a6 6 0 0 0 .39-1.82 5.1 5.1 0 0 0-10.19 0 6 6 0 0 0 .36 1.74l-3.45-1.23h-.16l-.16.03-7.14 2.78a.5.5 0 0 0-.3.39v15.6a.46.46 0 0 0 .63.43l6.98-2.7 7.97 2.85q.15.05.3 0l7.14-2.24a.5.5 0 0 0 .32-.46m-7.4-21.35a4.17 4.17 0 0 1 4.17 4.16c0 1.81-2.72 6.82-4.17 9.27-1.45-2.47-4.16-7.48-4.16-9.27a4.17 4.17 0 0 1 4.16-4.16m6.49 21.03-6.24 1.95v-3.53a.46.46 0 0 0-.92 0v3.5l-7.2-2.58v-2.96a.46.46 0 0 0-.93 0v2.96l-6.22 2.43v-7.16l2.3-.93a.46.46 0 1 0-.35-.86l-1.95.79v-6.45l6.22-2.4v1.38a.46.46 0 0 0 .93 0v-1.4l3.55 1.27a64 64 0 0 0 3.92 7.55.46.46 0 0 0 .8 0 65 65 0 0 0 3.9-7.5l2.17-.69.02 7.6-2.35.56a.47.47 0 0 0 .1.93h.12l2.13-.52z"/><path fill="#2D383F" d="M16.76 2.4a2.69 2.69 0 1 0 0 5.39 2.69 2.69 0 0 0 0-5.39m0 4.46a1.77 1.77 0 0 1-1.75-1.77h-.02a1.76 1.76 0 1 1 1.77 1.77m-6.06 7.1v.02l-2.24-.97a.5.5 0 0 0-.36 0l-1.9.77a.46.46 0 0 0 .35.86l1.72-.7 2.06.88.18.04a.46.46 0 0 0 .19-.9m7.57 2.66a.46.46 0 0 0-.52-.32v-.04l-1.15.28-1.94-.85a.47.47 0 0 0-.37.86l2.08.92.19.04h.1l1.3-.32a.46.46 0 0 0 .3-.57"/></symbol><use xlink:href="#sprite-map" width="25" height="25" y="246"/><view id="sprite-map-view" viewBox="0 246 25 25"/><symbol id="sprite-moon" fill="none" viewBox="0 0 12 12"><g clip-path="url(#a)"><path fill="#fff" d="M11.2 6.75a.4.4 0 0 0-.32.07q-.55.47-1.24.73a4 4 0 0 1-1.41.25 4 4 0 0 1-2.9-1.2 4 4 0 0 1-1.2-2.91q0-.72.22-1.36a4 4 0 0 1 .67-1.2.36.36 0 0 0-.06-.5.4.4 0 0 0-.32-.07 5.6 5.6 0 0 0-2.95 1.98 5.55 5.55 0 0 0 .47 7.3 5.5 5.5 0 0 0 3.9 1.61 5.5 5.5 0 0 0 3.42-1.19 5.5 5.5 0 0 0 1.95-3.06.34.34 0 0 0-.23-.45m-2.14 2.93a4.8 4.8 0 0 1-6.35-.38 4.8 4.8 0 0 1-1.41-3.4c0-1.1.36-2.11.99-2.92a5 5 0 0 1 1.6-1.35 5 5 0 0 0-.46 2.07c0 1.33.54 2.55 1.4 3.42a4.8 4.8 0 0 0 3.41 1.41q.88 0 1.66-.3.27-.09.53-.22a5 5 0 0 1-1.37 1.67"/></g><defs><clipPath id="a"><path fill="#fff" d="M0 0h12v12h-12z"/></clipPath></defs></symbol><use xlink:href="#sprite-moon" width="12" height="12" y="271"/><view id="sprite-moon-view" viewBox="0 271 12 12"/><symbol id="sprite-mountain" fill="none" viewBox="0 0 25 25"><path fill="#2D383F" d="m23.42 24.19-4.05-9.4-3.81-8.88a.48.48 0 0 0-.88 0l-3.4 7.9-1.34 3.1-2.93-6.75a.48.48 0 0 0-.88 0l-2.75 6.36-3.34 7.66a.48.48 0 0 0 .44.67h22.5a.48.48 0 0 0 .43-.66m-8.3-16.9 3.1 7.2h-1.09l-1.96-2.17a.48.48 0 0 0-.76.07l-.73 1.13h-1.23zm-8.54 4.24 2.45 5.66h-1.34a.5.5 0 0 0-.4.22l-.48.76-1.23-1.74a.5.5 0 0 0-.39-.2h-.63zm-5.34 12.37 2.9-6.72h.8l1.5 2.12a.5.5 0 0 0 .38.2.5.5 0 0 0 .4-.21l.73-1.14h1.49l2.48 5.73zm11.73 0-2.5-5.77 1.57-3.65h1.9a.5.5 0 0 0 .4-.23l.54-.81 1.68 1.87q.15.15.36.15h1.7l3.64 8.45zm-5.35-21.82a2.25 2.25 0 0 0-4.35.8v.26a2.25 2.25 0 0 0 .9 4.29l.03.02h3.34a2.68 2.68 0 1 0 .08-5.37m-.05 4.43h-3.34a1.3 1.3 0 1 1-.27-2.59.5.5 0 0 0 .36-.62 1.3 1.3 0 1 1 2.5-.64c.05.25.28.42.54.39h.21a1.73 1.73 0 0 1 0 3.46m16.14-3.87v-.25a2.25 2.25 0 0 0-4.35-.82 2.68 2.68 0 0 0 .1 5.36h3.34a2.25 2.25 0 0 0 .9-4.3m.37 2.32a1.3 1.3 0 0 1-1.25 1.02h-3.34a1.73 1.73 0 0 1 0-3.46h.21a.5.5 0 0 0 .52-.37 1.3 1.3 0 1 1 2.5.65.5.5 0 0 0 .36.62c.7.15 1.15.84 1 1.54"/></symbol><use xlink:href="#sprite-mountain" width="25" height="25" y="283"/><view id="sprite-mountain-view" viewBox="0 283 25 25"/><symbol id="sprite-odnoklassniki" fill="none" viewBox="0 0 9 16"><path fill="#2D383F" d="M4.5 2.42c.92 0 1.66.77 1.66 1.71s-.74 1.7-1.66 1.7-1.66-.76-1.66-1.7.74-1.71 1.66-1.71m0 5.84a4.1 4.1 0 0 0 4.01-4.13c0-2.28-1.8-4.13-4.01-4.13s-4 1.85-4 4.13 1.79 4.13 4 4.13m1.62 3.37a7 7 0 0 0 2.33-1 1.23 1.23 0 0 0 .37-1.66 1.15 1.15 0 0 0-1.62-.38 5 5 0 0 1-5.4 0 1.15 1.15 0 0 0-1.62.38 1.23 1.23 0 0 0 .37 1.66 7 7 0 0 0 2.33 1l-2.24 2.3a1.24 1.24 0 0 0 0 1.71 1.16 1.16 0 0 0 1.66 0l2.2-2.26 2.2 2.26c.46.48 1.2.48 1.66 0a1.24 1.24 0 0 0 0-1.7z"/></symbol><use xlink:href="#sprite-odnoklassniki" width="9" height="16" y="308"/><view id="sprite-odnoklassniki-view" viewBox="0 308 9 16"/><symbol id="sprite-phone" fill="none" viewBox="0 0 22 22"><g clip-path="url(#clip0_602_1409)"><path stroke="#2D383F" stroke-linecap="round" stroke-linejoin="round" d="M19.32 20.04a1.7 1.7 0 0 1-1.68.95 18.8 18.8 0 0 1-11.24-5.41 19 19 0 0 1-5.4-11.29 1.7 1.7 0 0 1 .95-1.68l2.75-1.41c1.07-.55 2.36.09 2.73 1.23a19 19 0 0 0 1.3 3.02c.4.76.13 1.74-.66 2.1a1.8 1.8 0 0 0-.52 2.9l3.95 3.98a1.8 1.8 0 0 0 2.9-.53 1.6 1.6 0 0 1 2.21-.72l.6.3q1.14.53 2.33.9c1.16.36 1.81 1.67 1.26 2.75z"/></g></symbol><use xlink:href="#sprite-phone" width="22" height="22" y="324"/><view id="sprite-phone-view" viewBox="0 324 22 22"/><symbol id="sprite-pine-tree" fill="none" viewBox="0 0 25 25"><path fill="#2D383F" d="m24.6 18.08-4.92-5.61h2.38a.5.5 0 0 0 .4-.8l-3.95-5.19h2a.5.5 0 0 0 .38-.83l-4.82-5.48a.5.5 0 0 0-.75 0l-4.83 5.48a.5.5 0 0 0 .38.83h2.03l-1.22 1.59-3.24-3.7a.5.5 0 0 0-.76 0l-4.12 4.69a.5.5 0 0 0 .38.83h1.58l-3.3 4.32a.5.5 0 0 0 .4.8h1.86l-4.08 4.68a.5.5 0 0 0 .38.83h5.54v3.5c0 .54.44.98.97.98h1.53a.97.97 0 0 0 .98-.97v-3.51h4.16v3.5c0 .55.44.98.97.98h1.53a.97.97 0 0 0 .97-.97v-5.11h6.79a.5.5 0 0 0 .37-.84m-15.8 5.92-1.47.03-.03-3.51h1.5zm5.17-4.48h-12.08l4.1-4.68a.5.5 0 0 0-.39-.84h-1.95l3.3-4.31a.5.5 0 0 0-.4-.8h-1.5l3-3.43 3.01 3.41-2.11 2.8a.5.5 0 0 0 .4.8h2.37l-4.9 5.62a.5.5 0 0 0 .37.83h6.78zm2.47 4.47-1.47.04-.03-5.11h1.5zm.03-6.08h-8.18l4.9-5.61a.5.5 0 0 0-.37-.83h-2.46l3.96-5.18a.5.5 0 0 0-.4-.8h-1.91l3.72-4.23 3.7 4.22h-1.94a.5.5 0 0 0-.4.81l3.94 5.18h-2.44a.5.5 0 0 0-.38.83l4.9 5.61z"/></symbol><use xlink:href="#sprite-pine-tree" width="25" height="25" y="346"/><view id="sprite-pine-tree-view" viewBox="0 346 25 25"/><symbol id="sprite-raiting-filled-star" fill="none" viewBox="0 0 16 16"><path fill="#fff" d="m7.63 11.7 4.72 2.6-1.25-4.92 4.17-3.31-5.5-.43-2.14-4.64-2.14 4.64-5.49.43 4.17 3.31-1.25 4.92z"/></symbol><use xlink:href="#sprite-raiting-filled-star" width="16" height="16" y="371"/><view id="sprite-raiting-filled-star-view" viewBox="0 371 16 16"/><symbol id="sprite-raiting-star" fill="none" viewBox="0 0 16 16"><path fill="#fff" fill-rule="evenodd" d="m7.63 10.55 3.19 1.76-.84-3.31 2.68-2.13-3.54-.28-1.49-3.2-1.48 3.2-3.54.28 2.68 2.13-.84 3.3zm-4.71 3.75 1.25-4.92-4.17-3.31 5.49-.43 2.14-4.64 2.15 4.64 5.49.43-4.16 3.31 1.24 4.92-4.71-2.6z" clip-rule="evenodd"/></symbol><use xlink:href="#sprite-raiting-star" width="16" height="16" y="387"/><view id="sprite-raiting-star-view" viewBox="0 387 16 16"/><symbol id="sprite-reddit" fill="none" viewBox="0 0 14 15"><path fill="#2D383F" d="M8.36 0c-.45 0-.87.24-1.14.6s-.42.78-.53 1.23c-.17.73-.22 1.53-.23 2.26a7 7 0 0 0-3.36 1.1 2 2 0 0 0-1.3-.53c-.5.01-.98.24-1.34.72-.68.92-.6 2.42.19 3.31a5 5 0 0 0-.08.84c0 3.02 2.88 5.47 6.43 5.47s6.43-2.45 6.43-5.47a5 5 0 0 0-.08-.84c.79-.89.87-2.39.19-3.3a1.7 1.7 0 0 0-1.35-.73c-.44 0-.9.2-1.3.54a7 7 0 0 0-3.33-1.11c.02-.67.06-1.37.19-1.9q.12-.49.27-.69c.15-.2.17-.19.34-.19.37 0 .41.13.63.44q.15.23.44.53c.2.19.51.35.84.35v-1.32c-.1 0-.11 0-.17-.06q-.09-.1-.27-.37c-.26-.35-.74-.88-1.47-.88m3.54.12c-.84 0-1.53.83-1.53 1.85 0 1.03.69 1.85 1.53 1.85s1.53-.82 1.53-1.85c0-1.02-.68-1.85-1.53-1.85m0 .66c.55 0 .99.54.99 1.2s-.44 1.18-.99 1.18-.98-.53-.98-1.19.44-1.19.98-1.19m-4.9 4.34c3.02 0 5.57 2.02 5.57 4.41s-2.56 4.42-5.57 4.42-5.57-2.02-5.57-4.42 2.55-4.41 5.57-4.41m-5.17.6q.22 0 .46.12-.83.75-1.28 1.72c-.2-.5-.15-1.14.1-1.48a.9.9 0 0 1 .72-.37m10.35 0a.9.9 0 0 1 .7.37c.26.34.32.97.11 1.48a5 5 0 0 0-1.28-1.72q.24-.12.46-.13m-7.35 1.65c-.54 0-.99.53-.99 1.19s.45 1.19.99 1.19c.55 0 .99-.53.99-1.2 0-.65-.44-1.18-.99-1.18m4.36 0c-.55 0-.99.53-.99 1.19s.44 1.19.99 1.19.99-.53.99-1.2c0-.65-.45-1.18-1-1.18m-4.88 4.04c.35.87 1.42 1.71 2.71 1.71s2.38-.84 2.72-1.7c-.63.48-1.62.82-2.72.82s-2.08-.34-2.7-.83"/></symbol><use xlink:href="#sprite-reddit" width="14" height="15" y="403"/><view id="sprite-reddit-view" viewBox="0 403 14 15"/><symbol id="sprite-route" fill="none" viewBox="0 0 42 42"><g clip-path="url(#clip0_24401_693)"><path stroke="#0266C1" stroke-linecap="round" d="M28.8 18.56h-5.85a3.3 3.3 0 0 0-3.31 3.34 3.3 3.3 0 0 0 3.3 3.34h2.54c1.83 0 3.31 1.49 3.31 3.33s-1.48 3.34-3.31 3.34h-12.27m3.11-5.53c0-1.74-1.4-3.14-3.11-3.14s-3.12 1.4-3.12 3.14v.12c0 .68.22 1.36.62 1.91l2.5 3.45q0 .01 0 0l2.5-3.45a3.3 3.3 0 0 0 .61-1.91zm-2.51-1.3.02.01c.38.18.65.53.75.94a1.4 1.4 0 0 1-1.36 1.7h-.03a1.4 1.4 0 0 1-1.35-1.7c.1-.41.37-.76.75-.94h.02a1.4 1.4 0 0 1 1.2 0Zm18.1-11.83c0-1.73-1.4-3.16-3.12-3.16s-3.11 1.43-3.11 3.16c0 .68.21 1.36.62 1.9l2.49 3.37q0 0 0 0l2.5-3.37a3.2 3.2 0 0 0 .62-1.9Zm-2.52-1.36.04.02a1.34 1.34 0 0 1 .46 2.06l-.01.02a1.4 1.4 0 0 1-1.05.49h-.07c-.4 0-.8-.18-1.05-.5l-.02-.01a1.34 1.34 0 0 1 .47-2.06l.04-.02a1.4 1.4 0 0 1 1.19 0Z"/></g></symbol><use xlink:href="#sprite-route" width="42" height="42" y="418"/><view id="sprite-route-view" viewBox="0 418 42 42"/><symbol id="sprite-safety" fill="none" viewBox="0 0 42 42"><path stroke="#0266C1" d="m18.55 20.9 2.45 2.45 4.3-4.28m-4.3-8.98a18 18 0 0 1-9.4 1.95 18 18 0 0 0-.14 6.97 18 18 0 0 0 6.17 10.67 18 18 0 0 0 3.37 2.23 18 18 0 0 0 3.37-2.23 18 18 0 0 0 6.17-10.67c.41-2.33.36-4.7-.14-6.97a18 18 0 0 1-9.4-1.95Z"/></symbol><use xlink:href="#sprite-safety" width="42" height="42" y="460"/><view id="sprite-safety-view" viewBox="0 460 42 42"/><symbol id="sprite-sun" fill="none" viewBox="0 0 20 20"><path fill="#fff" d="M13.55 6.46a5 5 0 0 0-3.55-1.49 5 5 0 0 0-3.54 1.49c-.9.9-1.49 2.17-1.49 3.54a5.05 5.05 0 0 0 5.03 5.03 5 5 0 0 0 3.55-1.48c.9-.9 1.48-2.18 1.48-3.55a5 5 0 0 0-1.48-3.54m-.96 6.13a3.7 3.7 0 0 1-2.59 1.06 3.7 3.7 0 0 1-2.6-1.06 3.7 3.7 0 0 1-1.05-2.59 3.7 3.7 0 0 1 1.06-2.6 3.7 3.7 0 0 1 2.59-1.05 3.7 3.7 0 0 1 2.6 1.06 3.7 3.7 0 0 1 1.05 2.59 3.7 3.7 0 0 1-1.06 2.6m6.72-3.29h-2.03a.7.7 0 0 0-.7.69.7.7 0 0 0 .7.69h2.03a.7.7 0 0 0 .69-.69.7.7 0 0 0-.69-.69m-9.31 7.28a.7.7 0 0 0-.69.68v2.04a.7.7 0 0 0 .69.69.7.7 0 0 0 .69-.69v-2.03a.7.7 0 0 0-.69-.7m7.06-.47-1.45-1.45c-.24-.27-.69-.27-.95 0a.67.67 0 0 0 0 .95l1.45 1.45a.67.67 0 0 0 .95 0 .67.67 0 0 0 0-.95m-7.06-16.11a.7.7 0 0 0-.69.69v2.04a.7.7 0 0 0 .69.68.7.7 0 0 0 .69-.69v-2.03a.7.7 0 0 0-.69-.69m7.09 2.94a.67.67 0 0 0-.95 0l-1.46 1.45a.67.67 0 0 0 0 .95c.24.27.69.27.95 0l1.46-1.45a.67.67 0 0 0 0-.95m-14.36 6.37h-2.04a.7.7 0 0 0-.69.69c0 .37.3.69.69.69h2.04a.7.7 0 0 0 .68-.69.7.7 0 0 0-.69-.69m2.6 5.35c-.24-.27-.69-.27-.95 0l-1.46 1.45a.67.67 0 0 0 0 .95.67.67 0 0 0 .95 0l1.46-1.45a.67.67 0 0 0 0-.95m0-10.27-1.46-1.45a.67.67 0 0 0-.95 0 .67.67 0 0 0 0 .95l1.46 1.45a.67.67 0 0 0 .95 0 .67.67 0 0 0 0-.95"/></symbol><use xlink:href="#sprite-sun" width="20" height="20" y="502"/><view id="sprite-sun-view" viewBox="0 502 20 20"/><symbol id="sprite-vk" fill="none" viewBox="0 0 24 24"><path fill="currentColor" d="m18.93 15.23-.05-.1q-.37-.65-1.4-1.6v-.02l-.02-.01h-.01a8 8 0 0 1-.59-.6q-.23-.3-.1-.6.08-.22.65-.95l.48-.62q1.26-1.68 1.09-2.15l-.04-.07q-.05-.07-.23-.12a1 1 0 0 0-.47-.02l-2.1.01h-.14l-.1.03-.03.02-.03.02-.08.07-.07.13a12 12 0 0 1-.78 1.65q-.27.45-.5.78t-.38.49l-.28.25q-.12.1-.19.08l-.12-.03-.16-.18a1 1 0 0 1-.09-.28 3 3 0 0 1-.02-.65v-.3l.02-.6.02-.52v-.4q0-.2-.02-.34l-.08-.23a.4.4 0 0 0-.15-.17l-.24-.1a5 5 0 0 0-.99-.1q-1.35-.01-1.74.18a1 1 0 0 0-.27.22q-.14.16-.04.17.44.07.62.32l.04.08q.05.1.1.34t.07.53q.04.54 0 .91l-.07.6a1 1 0 0 1-.19.5l-.03.04-.2.03q-.1 0-.25-.1a2 2 0 0 1-.3-.28 4 4 0 0 1-.35-.5 9 9 0 0 1-.41-.76l-.12-.21-.3-.6-.33-.75a.5.5 0 0 0-.17-.24l-.04-.02a1 1 0 0 0-.29-.1h-2q-.3 0-.4.15l-.04.04-.02.12q0 .08.04.2.44 1.02.95 1.98.52.96.9 1.54t.77 1.1.52.67l.2.21.18.18q.18.17.52.42t.75.48.96.39 1.06.12h.84q.25-.02.39-.16l.03-.04.05-.13.03-.2q-.01-.32.04-.57t.13-.38a1 1 0 0 1 .28-.32l.06-.03q.17-.05.4.12t.45.42l.5.57q.3.31.51.46l.15.1q.14.08.38.15t.4.04l1.87-.03q.28 0 .43-.1.15-.08.18-.2v-.24z"/></symbol><use xlink:href="#sprite-vk" width="24" height="24" y="522"/><view id="sprite-vk-view" viewBox="0 522 24 24"/></svg>